# 3ds Max Wavefront OBJ Exporter v0.97b - (c)2007 guruware
# File Created: 24.01.2016 18:12:46

mtllib Hospital Bed Mattress.mtl

#
# object Hospital_Bed_Mattress
#

v  -34.7188 41.8437 69.3125
v  -35.0938 41.6875 67.8750
v  -35.7813 39.9062 68.5000
v  -34.9688 39.9375 69.8125
v  -33.3125 41.5937 69.9375
v  -35.2500 28.3750 70.1250
v  -35.8750 28.3750 68.6875
v  -33.6250 39.9687 70.4375
v  -33.5625 28.4219 70.3750
v  -35.1563 27.3125 69.9375
v  -35.5000 27.2969 68.1875
v  0.1645 40.3750 71.0000
v  0.1645 28.4531 70.8125
v  0.1645 41.7812 70.3750
v  -33.4063 27.3906 70.1875
v  0.1645 27.4062 70.5625
v  -33.5313 26.6094 68.4375
v  0.1645 26.6562 69.0625
v  33.9375 27.3281 69.8750
v  34.3437 28.3281 70.3125
v  34.2812 41.4375 69.8750
v  34.6562 39.7187 70.3125
v  -22.2031 26.3281 55.5000
v  35.6875 27.4219 69.0625
v  34.0625 26.5469 67.6250
v  0.1537 26.0937 55.3438
v  22.5156 26.1250 55.3750
v  36.0625 39.6250 69.3750
v  36.1250 28.3125 69.3125
v  35.6875 41.4375 69.0625
v  36.1562 27.4687 67.1875
v  36.5625 28.4219 67.6875
v  36.4375 39.6875 67.4375
v  35.8750 41.4062 67.3125
v  22.5000 26.1562 27.6563
v  0.1511 26.0781 26.1250
v  22.5156 26.0625 -0.0248
v  0.1497 26.0938 -0.1268
v  22.5000 26.1406 -28.9375
v  0.1511 26.0781 -29.0312
v  22.5156 26.3281 -55.4375
v  0.1481 26.1094 -55.4375
v  -22.2031 26.2031 29.1094
v  -22.2031 25.9375 0.1075
v  -22.2031 26.2188 -29.0313
v  -22.2031 26.3125 -55.4375
v  -32.7500 42.3125 68.6250
v  -33.5000 42.2812 66.8750
v  0.1644 42.9687 65.6875
v  0.1645 42.7812 69.1875
v  33.5312 42.5000 68.2500
v  12.2969 42.7187 57.7813
v  -20.5313 43.6875 58.2813
v  0.1644 42.1875 30.1094
v  -35.6875 41.7500 27.4062
v  -33.6875 42.6875 27.7812
v  -22.2656 43.8750 28.5469
v  34.1562 42.2500 66.6875
v  17.3437 43.1875 32.0625
v  0.1644 42.5625 0.2213
v  18.5000 42.9375 0.2213
v  -23.8906 43.5625 0.2213
v  -34.2813 42.9688 0.2213
v  35.6875 41.9063 33.2500
v  33.8750 42.7500 33.1250
v  34.5625 42.6563 0.2213
v  18.7344 42.7188 -38.8750
v  0.1644 44.0938 -39.0937
v  -25.8125 43.2188 -41.3750
v  36.4375 41.5313 0.2213
v  36.8750 39.3750 32.9063
v  36.3438 41.2813 -38.7187
v  34.3125 42.2813 -38.7500
v  -24.8437 43.0000 -55.1563
v  0.1647 43.0938 -64.3750
v  18.0938 42.4063 -67.6250
v  34.0625 42.0000 -67.3125
v  36.5625 39.6563 -38.7500
v  36.7188 39.4063 0.2213
v  35.9688 41.0938 -68.2500
v  36.9375 28.6719 34.0313
v  36.8750 27.8594 0.2213
v  0.1647 42.6875 -69.4375
v  -29.2344 42.3125 -65.7500
v  33.1250 41.9375 -68.7500
v  18.0625 42.2188 -69.0000
v  35.1250 41.6563 -69.5000
v  36.7188 27.8906 -40.9375
v  36.3750 40.0000 -68.5625
v  36.5313 26.6875 0.2213
v  36.6250 27.2344 34.2500
v  0.1647 41.5938 -70.6875
v  -32.7187 41.8750 -68.9375
v  18.0469 41.2813 -70.3750
v  34.1250 41.3125 -70.0000
v  35.0625 26.4062 34.2813
v  36.5313 28.2031 -68.4375
v  36.3125 26.7656 -40.9375
v  36.0938 27.0313 -68.1250
v  35.2188 25.9063 0.2213
v  -32.9062 41.3125 -70.3125
v  0.1647 39.6875 -71.1250
v  19.7031 39.5625 -70.8750
v  34.9063 26.0469 -40.9375
v  34.5000 26.3594 -68.1250
v  -33.2187 39.3125 -70.8750
v  0.1647 27.9844 -70.9375
v  -34.4687 41.2813 -69.9375
v  -34.8437 39.4063 -70.2500
v  -33.4375 28.2188 -70.5625
v  -33.8125 41.8438 -67.9375
v  -35.1250 41.1875 -68.9375
v  -35.7812 39.2188 -69.5000
v  -34.7812 28.0938 -70.5000
v  0.1647 26.9531 -70.6250
v  -33.3125 27.0313 -70.1875
v  -35.9375 28.0781 -69.7500
v  -34.7187 27.0156 -70.0625
v  -36.0312 41.7188 -44.0938
v  -34.6562 42.7813 -44.5625
v  -30.9062 42.9375 -63.9688
v  -33.8125 26.6719 -68.5625
v  0.1647 26.2344 -69.7500
v  -35.6250 26.9375 -69.3750
v  -35.9688 41.8750 0.2213
v  -36.6250 40.0938 -43.7188
v  -36.4375 39.6250 27.3125
v  -36.4688 39.7500 0.2213
v  -36.1250 28.0156 -41.0938
v  -36.4063 27.9219 0.2213
v  -36.4375 28.2656 34.1562
v  -35.8750 26.9219 -40.9375
v  -36.2188 26.8906 0.2213
v  -36.1250 27.2812 34.1250
v  -34.7188 26.0781 0.2213
v  -34.6250 26.5156 34.1875
v  -34.1875 26.4375 -40.9375
v  34.5625 26.8750 -69.8125
v  35.7813 26.8750 -69.0000
v  34.9063 28.0781 -70.5000
v  36.1250 28.0781 -69.6875
v  35.6875 40.2500 -69.8125
v  34.6250 40.1250 -70.4375
# 143 vertices

vn -0.5216 0.7020 0.4745
vn -0.6941 0.7098 0.0588
vn -0.9451 0.1765 0.2471
vn -0.6392 0.1529 0.7490
vn -0.1216 0.6078 0.7804
vn -0.5922 -0.0980 0.7961
vn -0.9608 -0.1608 0.1922
vn -0.2157 0.1608 0.9529
vn -0.0824 -0.0980 0.9843
vn -0.5059 -0.6235 0.6000
vn -0.7020 -0.7098 0.0667
vn 0.0039 0.1922 0.9765
vn 0.0039 -0.1373 0.9843
vn 0.0039 0.5922 0.8039
vn -0.0431 -0.6157 0.7882
vn 0.0039 -0.6314 0.7725
vn -0.1294 -0.9765 0.1765
vn 0.0039 -0.9686 0.2471
vn 0.1529 -0.7176 0.6784
vn 0.2627 -0.2235 0.9373
vn 0.2157 0.5922 0.7725
vn 0.3020 0.1373 0.9373
vn -0.0039 -1.0000 0.0118
vn 0.5608 -0.7098 0.4275
vn 0.1922 -0.9765 0.1451
vn 0.0039 -1.0000 0.0196
vn 0.0118 -1.0000 0.0118
vn 0.8196 0.1294 0.5608
vn 0.7725 -0.2471 0.5843
vn 0.6706 0.6078 0.4118
vn 0.7176 -0.7020 0.0667
vn 0.9686 -0.2157 0.1373
vn 0.9843 0.1529 0.0902
vn 0.7569 0.6471 0.0353
vn 0.0118 -1.0000 0.0039
vn 0.0039 -1.0000 -0.0039
vn -0.0039 -1.0000 -0.0039
vn -0.0039 -1.0000 -0.0118
vn 0.0039 -1.0000 -0.0118
vn -0.0118 -1.0000 0.0039
vn -0.0118 -1.0000 -0.0118
vn -0.0824 0.9686 0.2235
vn -0.1922 0.9765 0.0275
vn 0.0275 0.9922 0.0196
vn 0.0118 0.9294 0.3647
vn 0.1765 0.9608 0.2000
vn 0.0118 0.9922 -0.0039
vn -0.0196 0.9922 0.0431
vn 0.0196 0.9922 -0.0039
vn -0.7412 0.6627 0.0118
vn -0.2627 0.9608 0.0039
vn -0.0118 0.9922 -0.0039
vn 0.2784 0.9608 -0.0196
vn 0.0275 0.9922 0.0118
vn -0.0039 0.9922 -0.0039
vn -0.3098 0.9451 -0.0039
vn 0.7098 0.7020 0.0039
vn 0.2314 0.9686 0.0039
vn 0.2863 0.9529 -0.0039
vn 0.0431 0.9922 -0.0118
vn 0.0353 0.9922 -0.0118
vn -0.0353 0.9922 -0.0196
vn 0.8353 0.5451 -0.0039
vn 0.9765 0.2157 0.0039
vn 0.8118 0.5843 -0.0118
vn 0.2392 0.9686 -0.0118
vn -0.0118 0.9922 -0.0353
vn 0.0118 0.9922 -0.0588
vn 0.0353 0.9922 -0.0745
vn 0.2235 0.9686 -0.0353
vn 1.0000 0.0745 -0.0118
vn 0.7725 0.6235 -0.1137
vn 1.0000 -0.1059 0.0039
vn 0.9922 -0.1451 -0.0039
vn 0.0039 0.9137 -0.4039
vn 0.0275 0.9843 -0.1451
vn 0.0353 0.9608 -0.2549
vn 0.0275 0.9294 -0.3647
vn 0.4510 0.7647 -0.4588
vn 0.9922 -0.1686 -0.0118
vn 0.9529 0.1843 -0.2471
vn 0.7882 -0.6235 -0.0039
vn 0.8039 -0.6000 0.0118
vn 0.0039 0.5137 -0.8588
vn -0.0745 0.9686 -0.2392
vn 0.0275 0.5922 -0.8118
vn 0.0824 0.6314 -0.7725
vn 0.2549 -0.9686 0.0039
vn 0.9765 -0.1843 -0.1608
vn 0.7569 -0.6627 -0.0118
vn 0.7490 -0.6706 -0.0667
vn 0.2627 -0.9686 -0.0039
vn -0.0824 0.6627 -0.7412
vn 0.0039 0.1137 -1.0000
vn 0.0196 0.1373 -0.9922
vn 0.2314 -0.9765 -0.0118
vn 0.1765 -0.9843 -0.1216
vn -0.1686 0.1216 -0.9765
vn 0.0039 -0.1686 -0.9922
vn -0.4667 0.6392 -0.6078
vn -0.5294 0.1529 -0.8353
vn -0.0353 -0.1686 -0.9922
vn -0.2627 0.9529 -0.1137
vn -0.7333 0.6314 -0.2314
vn -0.8824 0.1843 -0.4353
vn -0.2941 -0.1765 -0.9451
vn 0.0039 -0.5686 -0.8275
vn -0.0196 -0.7490 -0.6784
vn -0.8431 -0.1686 -0.5059
vn -0.2000 -0.7255 -0.6627
vn -0.8118 0.5765 -0.0275
vn -0.3490 0.9294 -0.0275
vn -0.0431 0.9843 -0.1294
vn -0.0588 -1.0000 -0.0980
vn 0.0039 -0.9451 -0.3490
vn -0.6157 -0.7255 -0.3098
vn -0.8118 0.5765 0.0039
vn -0.9843 0.1451 -0.0196
vn -0.9843 0.1608 0.0039
vn -0.9922 0.1137 -0.0039
vn -0.9843 -0.1373 -0.0118
vn -0.9922 -0.0902 -0.0039
vn -0.9843 -0.1608 0.0039
vn -0.7255 -0.6941 -0.0118
vn -0.8118 -0.5843 -0.0039
vn -0.7569 -0.6549 0.0118
vn -0.2471 -0.9686 -0.0039
vn -0.2471 -0.9686 0.0039
vn -0.1451 -0.9922 -0.0118
vn 0.1922 -0.7647 -0.6235
vn 0.5922 -0.7412 -0.3333
vn 0.3098 -0.2627 -0.9216
vn 0.7725 -0.2471 -0.5922
vn 0.7098 0.2235 -0.6784
vn 0.2549 0.1843 -0.9529
# 135 vertex normals

vt 0.3171 0.4351 0.0000
vt 0.3186 0.4448 0.0000
vt 0.3059 0.4448 0.0000
vt 0.3047 0.4355 0.0000
vt 0.3152 0.4253 0.0000
vt 0.2369 0.4351 0.0000
vt 0.2360 0.4438 0.0000
vt 0.3049 0.4268 0.0000
vt 0.2378 0.4253 0.0000
vt 0.2323 0.4336 0.0000
vt 0.2253 0.4409 0.0000
vt 0.3101 0.2295 0.0000
vt 0.2406 0.2290 0.0000
vt 0.3188 0.2295 0.0000
vt 0.2317 0.4243 0.0000
vt 0.2344 0.2290 0.0000
vt 0.2206 0.4258 0.0000
vt 0.2247 0.2290 0.0000
vt 0.2345 0.0327 0.0000
vt 0.2405 0.0308 0.0000
vt 0.3169 0.0303 0.0000
vt 0.3064 0.0283 0.0000
vt 0.1450 0.3589 0.0000
vt 0.2345 0.0225 0.0000
vt 0.2207 0.0313 0.0000
vt 0.1456 0.2280 0.0000
vt 0.1483 0.0972 0.0000
vt 0.3057 0.0186 0.0000
vt 0.2394 0.0200 0.0000
vt 0.3171 0.0190 0.0000
vt 0.2274 0.0122 0.0000
vt 0.2385 0.0103 0.0000
vt 0.3062 0.0068 0.0000
vt 0.3181 0.0078 0.0000
vt 0.1279 0.9244 0.0000
vt 0.0089 0.9244 0.0000
vt 0.0092 0.8328 0.0000
vt 0.1283 0.8328 0.0000
vt 0.2366 0.9244 0.0000
vt 0.2366 0.8328 0.0000
vt 0.3555 0.9240 0.0000
vt 0.3557 0.8324 0.0000
vt 0.4641 0.9237 0.0000
vt 0.4639 0.8320 0.0000
vt 0.4941 0.0112 0.0000
vt 0.4963 0.0225 0.0000
vt 0.4851 0.0176 0.0000
vt 0.6665 0.0132 0.0000
vt 0.4836 0.0269 0.0000
vt 0.4924 0.0322 0.0000
vt 0.6660 0.0410 0.0000
vt 0.6665 0.0215 0.0000
vt 0.8350 0.0303 0.0000
vt 0.7271 0.0850 0.0000
vt 0.8389 0.0200 0.0000
vt 0.5596 0.0801 0.0000
vt 0.6641 0.2349 0.0000
vt 0.4817 0.2490 0.0000
vt 0.4927 0.2471 0.0000
vt 0.5508 0.2427 0.0000
vt 0.8467 0.0254 0.0000
vt 0.8379 0.0391 0.0000
vt 0.7505 0.2251 0.0000
vt 0.6631 0.3955 0.0000
vt 0.7544 0.3965 0.0000
vt 0.5430 0.3955 0.0000
vt 0.4912 0.3955 0.0000
vt 0.8477 0.0356 0.0000
vt 0.8438 0.2202 0.0000
vt 0.8335 0.2207 0.0000
vt 0.8345 0.3975 0.0000
vt 0.7544 0.6052 0.0000
vt 0.6626 0.6055 0.0000
vt 0.5347 0.6174 0.0000
vt 0.8452 0.3975 0.0000
vt 0.8569 0.0347 0.0000
vt 0.8574 0.2222 0.0000
vt 0.8423 0.6057 0.0000
vt 0.8311 0.6057 0.0000
vt 0.5391 0.6907 0.0000
vt 0.6616 0.7383 0.0000
vt 0.7490 0.7573 0.0000
vt 0.8276 0.7584 0.0000
vt 0.8506 0.6060 0.0000
vt 0.8560 0.3979 0.0000
vt 0.8384 0.7645 0.0000
vt 0.9111 0.2168 0.0000
vt 0.9131 0.3989 0.0000
vt 0.9136 0.0342 0.0000
vt 0.6616 0.7646 0.0000
vt 0.5181 0.7473 0.0000
vt 0.8223 0.7653 0.0000
vt 0.7485 0.7646 0.0000
vt 0.8311 0.7697 0.0000
vt 0.9092 0.6194 0.0000
vt 0.8442 0.7665 0.0000
vt 0.9194 0.3989 0.0000
vt 0.9185 0.2153 0.0000
vt 0.9189 0.0371 0.0000
vt 0.6616 0.7732 0.0000
vt 0.5010 0.7643 0.0000
vt 0.7485 0.7732 0.0000
vt 0.8267 0.7722 0.0000
vt 0.9277 0.2153 0.0000
vt 0.9033 0.7677 0.0000
vt 0.9150 0.6196 0.0000
vt 0.9097 0.7662 0.0000
vt 0.9272 0.3989 0.0000
vt 0.9307 0.0342 0.0000
vt 0.5000 0.7719 0.0000
vt 0.6616 0.7833 0.0000
vt 0.7568 0.7827 0.0000
vt 0.9229 0.6199 0.0000
vt 0.9819 0.0996 0.0000
vt 0.9819 0.2432 0.0000
vt 0.9185 0.7667 0.0000
vt 0.9819 0.4009 0.0000
vt 0.9819 0.5576 0.0000
vt 0.9819 0.7012 0.0000
vt 0.4983 0.7826 0.0000
vt 0.6616 0.8445 0.0000
vt 0.4924 0.7704 0.0000
vt 0.4895 0.7813 0.0000
vt 0.4963 0.8419 0.0000
vt 0.4946 0.7598 0.0000
vt 0.4871 0.7656 0.0000
vt 0.4829 0.7816 0.0000
vt 0.4897 0.8427 0.0000
vt 0.6616 0.8501 0.0000
vt 0.4968 0.8486 0.0000
vt 0.4827 0.8429 0.0000
vt 0.4900 0.8485 0.0000
vt 0.4824 0.6321 0.0000
vt 0.4910 0.6345 0.0000
vt 0.5098 0.7378 0.0000
vt 0.4941 0.8573 0.0000
vt 0.6616 0.8560 0.0000
vt 0.4844 0.8508 0.0000
vt 0.5503 0.9319 0.0000
vt 0.4812 0.3960 0.0000
vt 0.4739 0.6304 0.0000
vt 0.6621 0.9319 0.0000
vt 0.4702 0.2495 0.0000
vt 0.4705 0.3960 0.0000
vt 0.4768 0.7690 0.0000
vt 0.4202 0.7733 0.0000
vt 0.4136 0.6179 0.0000
vt 0.4114 0.3960 0.0000
vt 0.4739 0.0229 0.0000
vt 0.4128 0.2114 0.0000
vt 0.4141 0.7715 0.0000
vt 0.4080 0.6172 0.0000
vt 0.4060 0.3960 0.0000
vt 0.4148 0.0215 0.0000
vt 0.4077 0.2119 0.0000
vt 0.4089 0.0244 0.0000
vt 0.3975 0.3960 0.0000
vt 0.3992 0.2114 0.0000
vt 0.4045 0.7676 0.0000
vt 0.3992 0.6174 0.0000
vt 0.3984 0.0225 0.0000
vt 0.3423 0.2378 0.0000
vt 0.3423 0.0923 0.0000
vt 0.3423 0.3970 0.0000
vt 0.3423 0.5552 0.0000
vt 0.3423 0.6990 0.0000
vt 0.7734 0.9319 0.0000
vt 0.8311 0.8589 0.0000
vt 0.8306 0.8492 0.0000
vt 0.8379 0.8505 0.0000
vt 0.8428 0.8533 0.0000
vt 0.8320 0.8420 0.0000
vt 0.8389 0.8424 0.0000
vt 0.8457 0.8422 0.0000
vt 0.8350 0.7764 0.0000
vt 0.8291 0.7781 0.0000
vt 0.8423 0.7765 0.0000
# 177 texture coords

g Hospital_Bed_Mattress
usemtl Material_000001
s 1
f 1/1/1 2/2/2 3/3/3 
f 3/3/3 4/4/4 1/1/1 
f 5/5/5 1/1/1 4/4/4 
f 6/6/6 4/4/4 3/3/3 
f 3/3/3 7/7/7 6/6/6 
f 4/4/4 8/8/8 5/5/5 
f 9/9/9 8/8/8 4/4/4 
f 4/4/4 6/6/6 9/9/9 
f 9/9/9 6/6/6 10/10/10 
f 10/10/10 6/6/6 7/7/7 
f 7/7/7 11/11/11 10/10/10 
f 5/5/5 8/8/8 12/12/12 
f 8/8/8 9/9/9 13/13/13 
f 13/13/13 12/12/12 8/8/8 
f 12/12/12 14/14/14 5/5/5 
f 10/10/10 15/15/15 9/9/9 
f 9/9/9 15/15/15 16/16/16 
f 16/16/16 13/13/13 9/9/9 
f 17/17/17 15/15/15 10/10/10 
f 10/10/10 11/11/11 17/17/17 
f 18/18/18 16/16/16 15/15/15 
f 15/15/15 17/17/17 18/18/18 
f 13/13/13 16/16/16 19/19/19 
f 19/19/19 16/16/16 18/18/18 
f 19/19/19 20/20/20 13/13/13 
f 12/12/12 13/13/13 20/20/20 
f 21/21/21 14/14/14 12/12/12 
f 20/20/20 22/22/22 12/12/12 
f 12/12/12 22/22/22 21/21/21 
f 18/18/18 17/17/17 23/23/23 
f 20/20/20 19/19/19 24/24/24 
f 18/18/18 25/25/25 19/19/19 
f 24/24/24 19/19/19 25/25/25 
f 23/23/23 26/26/26 18/18/18 
f 27/27/27 25/25/25 18/18/18 
f 18/18/18 26/26/26 27/27/27 
f 28/28/28 22/22/22 20/20/20 
f 24/24/24 29/29/29 20/20/20 
f 20/20/20 29/29/29 28/28/28 
f 30/30/30 21/21/21 22/22/22 
f 22/22/22 28/28/28 30/30/30 
f 25/25/25 31/31/31 24/24/24 
f 32/32/32 29/29/29 24/24/24 
f 24/24/24 31/31/31 32/32/32 
f 28/28/28 29/29/29 32/32/32 
f 30/30/30 28/28/28 33/33/33 
f 32/32/32 33/33/33 28/28/28 
f 33/33/33 34/34/34 30/30/30 
f 35/35/35 27/36/27 26/37/26 
f 26/37/26 36/38/36 35/35/35 
f 37/39/37 35/35/35 36/38/36 
f 36/38/36 38/40/36 37/39/37 
f 39/41/38 37/39/37 38/40/36 
f 38/40/36 40/42/36 39/41/38 
f 41/43/39 39/41/38 40/42/36 
f 40/42/36 42/44/39 41/43/39 
f 26/37/26 23/36/23 43/35/40 
f 43/35/40 36/38/36 26/37/26 
f 36/38/36 43/35/40 44/39/36 
f 44/39/36 38/40/36 36/38/36 
f 38/40/36 44/39/36 45/41/38 
f 45/41/38 40/42/36 38/40/36 
f 40/42/36 45/41/38 46/43/41 
f 46/43/41 42/44/39 40/42/36 
f 5/45/5 47/46/42 1/47/1 
f 47/46/42 5/45/5 14/48/14 
f 2/49/2 1/47/1 47/46/42 
f 47/46/42 48/50/43 2/49/2 
f 49/51/44 48/50/43 47/46/42 
f 47/46/42 50/52/45 49/51/44 
f 14/48/14 50/52/45 47/46/42 
f 51/53/46 50/52/45 14/48/14 
f 52/54/47 49/51/44 50/52/45 
f 51/53/46 52/54/47 50/52/45 
f 14/48/14 21/55/21 51/53/46 
f 48/50/43 49/51/44 53/56/48 
f 53/56/48 49/51/44 54/57/49 
f 54/57/49 49/51/44 52/54/47 
f 55/58/50 2/49/2 48/50/43 
f 56/59/51 48/50/43 53/56/48 
f 48/50/43 56/59/51 55/58/50 
f 53/56/48 57/60/52 56/59/51 
f 54/57/49 57/60/52 53/56/48 
f 51/53/46 21/55/21 30/61/30 
f 30/61/30 58/62/53 51/53/46 
f 52/54/47 51/53/46 58/62/53 
f 58/62/53 59/63/52 52/54/47 
f 52/54/47 59/63/52 54/57/49 
f 57/60/52 54/57/49 60/64/54 
f 61/65/55 60/64/54 54/57/49 
f 54/57/49 59/63/52 61/65/55 
f 60/64/54 62/66/52 57/60/52 
f 56/59/51 57/60/52 62/66/52 
f 55/58/50 56/59/51 63/67/56 
f 62/66/52 63/67/56 56/59/51 
f 58/62/53 30/61/30 34/68/34 
f 58/62/53 34/68/34 64/69/57 
f 64/69/57 65/70/58 58/62/53 
f 59/63/52 58/62/53 65/70/58 
f 66/71/59 61/65/55 59/63/52 
f 59/63/52 65/70/58 66/71/59 
f 60/64/54 61/65/55 67/72/60 
f 67/72/60 61/65/55 66/71/59 
f 62/66/52 60/64/54 68/73/61 
f 67/72/60 68/73/61 60/64/54 
f 68/73/61 69/74/62 62/66/52 
f 63/67/56 62/66/52 69/74/62 
f 70/75/63 66/71/59 65/70/58 
f 65/70/58 64/69/57 70/75/63 
f 64/69/57 34/68/34 33/76/33 
f 33/76/33 71/77/64 64/69/57 
f 70/75/63 64/69/57 71/77/64 
f 66/71/59 70/75/63 72/78/65 
f 72/78/65 73/79/66 66/71/59 
f 66/71/59 73/79/66 67/72/60 
f 74/80/67 69/74/62 68/73/61 
f 68/73/61 75/81/68 74/80/67 
f 75/81/68 68/73/61 67/72/60 
f 67/72/60 76/82/69 75/81/68 
f 77/83/70 76/82/69 67/72/60 
f 67/72/60 73/79/66 77/83/70 
f 77/83/70 73/79/66 72/78/65 
f 78/84/71 72/78/65 70/75/63 
f 70/75/63 79/85/71 78/84/71 
f 71/77/64 79/85/71 70/75/63 
f 72/78/65 80/86/72 77/83/70 
f 80/86/72 72/78/65 78/84/71 
f 81/87/73 71/77/64 33/76/33 
f 82/88/74 79/85/71 71/77/64 
f 71/77/64 81/87/73 82/88/74 
f 78/84/71 79/85/71 82/88/74 
f 33/76/33 32/89/32 81/87/73 
f 83/90/75 75/81/68 76/82/69 
f 84/91/76 74/80/67 75/81/68 
f 84/91/76 75/81/68 83/90/75 
f 76/82/69 77/83/70 85/92/77 
f 76/82/69 86/93/78 83/90/75 
f 85/92/77 86/93/78 76/82/69 
f 87/94/79 85/92/77 77/83/70 
f 77/83/70 80/86/72 87/94/79 
f 82/88/74 88/95/80 78/84/71 
f 89/96/81 78/84/71 88/95/80 
f 78/84/71 89/96/81 80/86/72 
f 90/97/82 82/88/74 81/87/73 
f 88/95/80 82/88/74 90/97/82 
f 81/87/73 91/98/83 90/97/82 
f 31/99/31 91/98/83 81/87/73 
f 81/87/73 32/89/32 31/99/31 
f 92/100/84 83/90/75 86/93/78 
f 83/90/75 93/101/85 84/91/76 
f 93/101/85 83/90/75 92/100/84 
f 86/93/78 94/102/86 92/100/84 
f 94/102/86 86/93/78 85/92/77 
f 85/92/77 95/103/87 94/102/86 
f 85/92/77 87/94/79 95/103/87 
f 96/104/88 91/98/83 31/99/31 
f 90/97/82 91/98/83 96/104/88 
f 88/95/80 97/105/89 89/96/81 
f 90/97/82 98/106/90 88/95/80 
f 99/107/91 97/105/89 88/95/80 
f 88/95/80 98/106/90 99/107/91 
f 98/106/90 90/97/82 100/108/92 
f 96/104/88 100/108/92 90/97/82 
f 31/99/31 25/109/25 96/104/88 
f 92/100/84 101/110/93 93/101/85 
f 102/111/94 92/100/84 94/102/86 
f 101/110/93 92/100/84 102/111/94 
f 103/112/95 94/102/86 95/103/87 
f 94/102/86 103/112/95 102/111/94 
f 100/108/92 104/113/96 98/106/90 
f 99/107/91 98/106/90 104/113/96 
f 96/104/88 25/109/25 27/114/27 
f 27/114/27 35/115/35 96/104/88 
f 100/108/92 96/104/88 35/115/35 
f 104/113/96 105/116/97 99/107/91 
f 35/115/35 37/117/37 100/108/92 
f 100/108/92 37/117/37 39/118/38 
f 39/118/38 104/113/96 100/108/92 
f 104/113/96 39/118/38 41/119/39 
f 41/119/39 105/116/97 104/113/96 
f 102/111/94 106/120/98 101/110/93 
f 107/121/99 102/111/94 103/112/95 
f 106/120/98 102/111/94 107/121/99 
f 108/122/100 101/110/93 106/120/98 
f 108/122/100 93/101/85 101/110/93 
f 106/120/98 109/123/101 108/122/100 
f 107/121/99 110/124/102 106/120/98 
f 109/123/101 106/120/98 110/124/102 
f 111/125/103 93/101/85 108/122/100 
f 112/126/104 108/122/100 109/123/101 
f 108/122/100 112/126/104 111/125/103 
f 84/91/76 93/101/85 111/125/103 
f 109/123/101 113/127/105 112/126/104 
f 113/127/105 109/123/101 114/128/106 
f 110/124/102 114/128/106 109/123/101 
f 110/124/102 107/121/99 115/129/107 
f 115/129/107 116/130/108 110/124/102 
f 114/128/106 110/124/102 116/130/108 
f 114/128/106 117/131/109 113/127/105 
f 117/131/109 114/128/106 118/132/110 
f 116/130/108 118/132/110 114/128/106 
f 111/125/103 112/126/104 119/133/111 
f 119/133/111 120/134/112 111/125/103 
f 120/134/112 121/135/113 111/125/103 
f 111/125/103 121/135/113 84/91/76 
f 74/80/67 84/91/76 121/135/113 
f 74/80/67 121/135/113 120/134/112 
f 118/132/110 116/130/108 122/136/114 
f 116/130/108 115/129/107 123/137/115 
f 123/137/115 122/136/114 116/130/108 
f 118/132/110 124/138/116 117/131/109 
f 122/136/114 124/138/116 118/132/110 
f 120/134/112 69/74/62 74/80/67 
f 69/74/62 120/134/112 63/67/56 
f 63/67/56 120/134/112 119/133/111 
f 46/139/41 122/136/114 123/137/115 
f 119/133/111 125/140/117 63/67/56 
f 125/140/117 119/133/111 126/141/118 
f 126/141/118 119/133/111 112/126/104 
f 63/67/56 125/140/117 55/58/50 
f 123/137/115 42/142/39 46/139/41 
f 127/143/119 55/58/50 125/140/117 
f 125/140/117 128/144/120 127/143/119 
f 126/141/118 128/144/120 125/140/117 
f 112/126/104 113/145/105 126/141/118 
f 126/141/118 113/145/105 117/146/109 
f 117/146/109 129/147/121 126/141/118 
f 128/144/120 126/141/118 129/147/121 
f 127/143/119 128/144/120 130/148/122 
f 129/147/121 130/148/122 128/144/120 
f 2/49/2 55/58/50 127/143/119 
f 127/143/119 3/149/3 2/49/2 
f 130/148/122 131/150/123 127/143/119 
f 3/149/3 127/143/119 131/150/123 
f 129/147/121 117/146/109 124/151/116 
f 124/151/116 132/152/124 129/147/121 
f 130/148/122 129/147/121 132/152/124 
f 131/150/123 130/148/122 133/153/125 
f 132/152/124 133/153/125 130/148/122 
f 131/150/123 7/154/7 3/149/3 
f 133/153/125 134/155/126 131/150/123 
f 11/156/11 7/154/7 131/150/123 
f 131/150/123 134/155/126 11/156/11 
f 134/155/126 133/153/125 135/157/127 
f 135/157/127 133/153/125 132/152/124 
f 135/157/127 136/158/128 134/155/126 
f 11/156/11 134/155/126 136/158/128 
f 132/152/124 124/151/116 122/159/114 
f 122/159/114 137/160/129 132/152/124 
f 132/152/124 137/160/129 135/157/127 
f 136/158/128 17/161/17 11/156/11 
f 43/162/40 136/158/128 135/157/127 
f 136/158/128 43/162/40 23/163/23 
f 23/163/23 17/161/17 136/158/128 
f 135/157/127 44/164/36 43/162/40 
f 45/165/38 44/164/36 135/157/127 
f 135/157/127 137/160/129 45/165/38 
f 137/160/129 122/159/114 46/166/41 
f 46/166/41 45/165/38 137/160/129 
f 41/167/39 42/142/39 123/137/115 
f 123/137/115 105/168/97 41/167/39 
f 138/169/130 105/168/97 123/137/115 
f 123/137/115 115/129/107 138/169/130 
f 138/169/130 115/129/107 107/121/99 
f 105/168/97 138/169/130 139/170/131 
f 139/170/131 99/171/91 105/168/97 
f 107/121/99 140/172/132 138/169/130 
f 141/173/133 139/170/131 138/169/130 
f 138/169/130 140/172/132 141/173/133 
f 97/174/89 99/171/91 139/170/131 
f 139/170/131 141/173/133 97/174/89 
f 103/112/95 140/172/132 107/121/99 
f 142/175/134 141/173/133 140/172/132 
f 140/172/132 103/112/95 143/176/135 
f 140/172/132 143/176/135 142/175/134 
f 89/177/81 97/174/89 141/173/133 
f 141/173/133 142/175/134 89/177/81 
f 95/103/87 143/176/135 103/112/95 
f 143/176/135 95/103/87 87/94/79 
f 87/94/79 142/175/134 143/176/135 
f 80/86/72 89/177/81 142/175/134 
f 142/175/134 87/94/79 80/86/72 
# 0 polygons - 282 triangles

